<svg xmlns="http://www.w3.org/2000/svg" width="214" height="40" viewBox="0 0 214 40">
  <g id="组_17266" data-name="组 17266" transform="translate(-11508 8742)">
    <g id="logo" transform="translate(11436.75 -8800.271)">
      <rect id="矩形_5097" data-name="矩形 5097" width="29.533" height="35.898" transform="translate(71.25 61.274)" fill="#d20110"/>
      <path id="路径_8286" data-name="路径 8286" d="M78.694,134.153s-2.762-3.7-3.705-5.417a40.986,40.986,0,0,1-2.475-5.551,33.038,33.038,0,0,0,.476,4.223,5.394,5.394,0,0,0,.22.829,19.171,19.171,0,0,0,2.167,4.091,20.553,20.553,0,0,1,1.147,1.832Z" transform="translate(-0.743 -36.981)" fill="#fff" fill-rule="evenodd"/>
      <path id="路径_8287" data-name="路径 8287" d="M83.754,97.5a35.829,35.829,0,0,1-10.7-19.948c-1.111-6.883.167-10.973,1.684-12.9A7.7,7.7,0,0,1,79,61.989a8.655,8.655,0,0,1,5.181.442A22.806,22.806,0,0,1,91.212,66.8c1.147,1.147,3.553,3.479,3.553,3.479s.442.222.093.509.62.62.62.62a.764.764,0,0,1-.127.409c-.057.068.374.388.253.362-.379-.083-3.725-3.324-6.241-4.564s-4.737-2.626-7.326-2.348A5.836,5.836,0,0,0,77.5,67.849c-4.534,6.923,2.252,21.436,7.328,27.271,1.48,1.7,2.151,2.355,2.151,2.355Z" transform="translate(-0.83 -0.304)" fill="#fff" fill-rule="evenodd"/>
      <path id="路径_8288" data-name="路径 8288" d="M92.775,88.352s.069.245.191.662c.1.349.241.819.409,1.368.539,1.767,1.368,4.344,2.176,6.3,1.463,3.54,4.791,12.389,9.493,12.221,3.45-.124.676-6.315.019-7.743-.366-.795-.755-1.569,0-.426.334.506,1.181,2.735,1.24,2.5a14.919,14.919,0,0,0-.648-1.832l-.426-1.046c-1.006-1.864.176-.131.213-.278.056-.222-.018-.333.111-.278.866.371,2.438,3.113,2.693,3.877a15.233,15.233,0,0,1,1.073,4.83c.14,2.748-1.763,4.82-5,3.607-2.151-.8-5.085-4.561-6.267-6.5A47.022,47.022,0,0,1,94.419,97.9c-.7-1.825-1.24-3.676-1.792-5.416a.3.3,0,0,1,.111-.13c.065-.028.016.055-.028-.158s-.078-1.052.241-1.277c.077-.054.111.1.083-.083a15.853,15.853,0,0,0-.259-2.479" transform="translate(-12.778 -16.188)" fill="#fff" fill-rule="evenodd"/>
      <path id="路径_8289" data-name="路径 8289" d="M105.12,92.56a5.968,5.968,0,0,0,.477,2.588,11.973,11.973,0,0,0,2.323,3.736c.034.029.087.112.121.138s.072-.08.145-.092c.1-.016.044.1.145.177a4.881,4.881,0,0,1,.612.454.922.922,0,0,0,.111.08c.08.065.038-.01-.1-.267a19.68,19.68,0,0,1-.951-2.224,17.992,17.992,0,0,1,1.2,2.078c.008.017-3.387-6.4-.514-7.31a4.733,4.733,0,0,1,3.148.516c2.03.968,4.649,5.068,5.481,7.044.148.352,1.073,2.313,1.351,3.258.123.417.336,1.073.527,1.727a6.362,6.362,0,0,1,.38,1.974c-.117.609.33-.505.213-1.36-.688-5.011-5.487-15.72-10.871-16.08a3.856,3.856,0,0,0-2.354.534,3.277,3.277,0,0,0-1.445,3.031" transform="translate(-20.244 -16.564)" fill="#fff" fill-rule="evenodd"/>
      <path id="路径_8290" data-name="路径 8290" d="M121.315,64.012s-.872-.491-.668-.315a8.264,8.264,0,0,0,1.01.852,2.311,2.311,0,0,1,.487.579c.426.576.125.436-.1.2a7.652,7.652,0,0,0-1.456-1.193c-.374-.239-.831-.377-1.229-.656,0,0,.527.463.87.754.471.4.27.58.772.851a9.6,9.6,0,0,1,.759.689.4.4,0,0,1,.2.43c-.054.6.975,1.024,1.055,1.1.062.056-.04.186-.278.13-.3-.071-.892-.662-.894-.471a.771.771,0,0,0,.246.36c.152.118.475.543.666.426.055-.033.261.07.483.239a2.127,2.127,0,0,1,.493.658c.068.125.181.108.121.142-.089.05-.214-.1-.406-.237-.358-.25-.668-.85-.662-.507a1.29,1.29,0,0,0-.01.178c.354.408.675.516,1.064,1.009L124.7,70.5a7.908,7.908,0,0,0,.777,1.156c.035,0-.523-1.143-.794-1.825-.1-.251-.241-.431-.219-.479.01-.022.037.035.083.121a16.738,16.738,0,0,0,.989,1.886.7.7,0,0,1,.069.349c.016.193.316.546.43.745.547.949,1.56,2.941,1.9,3.612V70.786a28.292,28.292,0,0,0-4.64-5.636,18.044,18.044,0,0,0-6.624-3.877c.33.166,1.115.552,1.4.7C121.209,63.608,121.315,64.012,121.315,64.012Z" transform="translate(-27.148 0)" fill="#fff" fill-rule="evenodd"/>
    </g>
    <text id="广咨演示系统" transform="translate(11552 -8710)" fill="rgba(0,0,0,0.8)" font-size="28" font-family="SourceHanSerifCN-Bold, Source Han Serif CN" font-weight="700"><tspan x="0" y="0">广咨演示系统</tspan></text>
  </g>
</svg>
